<mxfile host="app.diagrams.net" agent="Mozilla/5.0 (Macintosh; Intel Mac OS X 10_15_7) AppleWebKit/537.36 (KHTML, like Gecko) Chrome/133.0.0.0 Safari/537.36" version="26.0.16">
  <diagram name="LangGraph Flow" id="langgraph-flow">
    <mxGraphModel dx="1080" dy="628" grid="1" gridSize="10" guides="1" tooltips="1" connect="1" arrows="1" fold="1" page="1" pageScale="1" pageWidth="827" pageHeight="1169" math="0" shadow="0" adaptiveColors="auto">
      <root>
        <mxCell id="0" />
        <mxCell id="1" parent="0" />
        <mxCell id="-SZtNBZtj36RFmlGFLr5-7" value="Tools" style="text;html=1;align=left;dashed=1;dashPattern=8 8;strokeWidth=1;strokeColor=default;fillColor=none;" vertex="1" parent="1">
          <mxGeometry x="566" y="240" width="140" height="260" as="geometry" />
        </mxCell>
        <mxCell id="title1" value="&amp;nbsp; Agentic AI Flow Using LangGraph" style="text;html=1;strokeColor=#666666;fillColor=#f5f5f5;align=left;fontColor=#333333;" parent="1" vertex="1">
          <mxGeometry x="379" y="130" width="200" height="30" as="geometry" />
        </mxCell>
        <mxCell id="-SZtNBZtj36RFmlGFLr5-10" style="edgeStyle=orthogonalEdgeStyle;rounded=0;orthogonalLoop=1;jettySize=auto;html=1;exitX=1;exitY=0.5;exitDx=0;exitDy=0;entryX=0;entryY=0.5;entryDx=0;entryDy=0;" edge="1" parent="1" source="agentState" target="rephrase">
          <mxGeometry relative="1" as="geometry" />
        </mxCell>
        <mxCell id="-SZtNBZtj36RFmlGFLr5-50" style="edgeStyle=orthogonalEdgeStyle;rounded=0;orthogonalLoop=1;jettySize=auto;html=1;entryX=1;entryY=0.5;entryDx=0;entryDy=0;" edge="1" parent="1" source="agentState" target="user">
          <mxGeometry relative="1" as="geometry" />
        </mxCell>
        <mxCell id="agentState" value="Ref Data Agent" style="ellipse;whiteSpace=wrap;html=1;fillColor=#fff2cc;strokeColor=#d6b656;" parent="1" vertex="1">
          <mxGeometry x="269" y="340" width="120" height="40" as="geometry" />
        </mxCell>
        <mxCell id="-SZtNBZtj36RFmlGFLr5-11" style="edgeStyle=orthogonalEdgeStyle;rounded=0;orthogonalLoop=1;jettySize=auto;html=1;exitX=0.5;exitY=1;exitDx=0;exitDy=0;" edge="1" parent="1" source="rephrase" target="retrieve">
          <mxGeometry relative="1" as="geometry" />
        </mxCell>
        <mxCell id="rephrase" value="&amp;nbsp; &amp;nbsp;Rephrase" style="rounded=1;whiteSpace=wrap;html=1;fillColor=#fff2cc;strokeColor=#d6b656;" parent="1" vertex="1">
          <mxGeometry x="429" y="280" width="100" height="40" as="geometry" />
        </mxCell>
        <mxCell id="-SZtNBZtj36RFmlGFLr5-44" style="edgeStyle=orthogonalEdgeStyle;rounded=0;orthogonalLoop=1;jettySize=auto;html=1;entryX=0;entryY=0.5;entryDx=0;entryDy=0;" edge="1" parent="1" source="retrieve" target="-SZtNBZtj36RFmlGFLr5-24">
          <mxGeometry relative="1" as="geometry" />
        </mxCell>
        <mxCell id="-SZtNBZtj36RFmlGFLr5-45" style="edgeStyle=orthogonalEdgeStyle;rounded=0;orthogonalLoop=1;jettySize=auto;html=1;entryX=-0.011;entryY=0.567;entryDx=0;entryDy=0;entryPerimeter=0;" edge="1" parent="1" source="retrieve" target="-SZtNBZtj36RFmlGFLr5-20">
          <mxGeometry relative="1" as="geometry">
            <mxPoint x="600" y="310" as="targetPoint" />
          </mxGeometry>
        </mxCell>
        <mxCell id="-SZtNBZtj36RFmlGFLr5-46" style="edgeStyle=orthogonalEdgeStyle;rounded=0;orthogonalLoop=1;jettySize=auto;html=1;entryX=0;entryY=0.5;entryDx=0;entryDy=0;" edge="1" parent="1">
          <mxGeometry relative="1" as="geometry">
            <mxPoint x="528" y="360" as="sourcePoint" />
            <mxPoint x="618.18" y="409" as="targetPoint" />
            <Array as="points">
              <mxPoint x="579" y="360" />
              <mxPoint x="579" y="409" />
            </Array>
          </mxGeometry>
        </mxCell>
        <mxCell id="-SZtNBZtj36RFmlGFLr5-48" style="edgeStyle=orthogonalEdgeStyle;rounded=0;orthogonalLoop=1;jettySize=auto;html=1;entryX=0;entryY=0.5;entryDx=0;entryDy=0;" edge="1" parent="1">
          <mxGeometry relative="1" as="geometry">
            <mxPoint x="528" y="360" as="sourcePoint" />
            <mxPoint x="629" y="317.5" as="targetPoint" />
            <Array as="points">
              <mxPoint x="579" y="360" />
              <mxPoint x="579" y="318" />
            </Array>
          </mxGeometry>
        </mxCell>
        <mxCell id="-SZtNBZtj36RFmlGFLr5-58" value="" style="edgeStyle=orthogonalEdgeStyle;rounded=0;orthogonalLoop=1;jettySize=auto;html=1;" edge="1" parent="1" source="retrieve" target="-SZtNBZtj36RFmlGFLr5-56">
          <mxGeometry relative="1" as="geometry" />
        </mxCell>
        <mxCell id="retrieve" value="Retrieve" style="rounded=1;whiteSpace=wrap;html=1;fillColor=#fff2cc;strokeColor=#d6b656;" parent="1" vertex="1">
          <mxGeometry x="429" y="340" width="100" height="40" as="geometry" />
        </mxCell>
        <mxCell id="-SZtNBZtj36RFmlGFLr5-13" value="" style="edgeStyle=orthogonalEdgeStyle;rounded=0;orthogonalLoop=1;jettySize=auto;html=1;" edge="1" parent="1" source="summarize" target="summase">
          <mxGeometry relative="1" as="geometry" />
        </mxCell>
        <mxCell id="summarize" value="&amp;nbsp; &amp;nbsp; AI Answer" style="rounded=1;whiteSpace=wrap;html=1;fillColor=#fff2cc;strokeColor=#d6b656;" parent="1" vertex="1">
          <mxGeometry x="429" y="461" width="100" height="40" as="geometry" />
        </mxCell>
        <mxCell id="-SZtNBZtj36RFmlGFLr5-61" style="edgeStyle=orthogonalEdgeStyle;rounded=0;orthogonalLoop=1;jettySize=auto;html=1;entryX=0.5;entryY=1;entryDx=0;entryDy=0;" edge="1" parent="1" source="summase" target="agentState">
          <mxGeometry relative="1" as="geometry" />
        </mxCell>
        <mxCell id="summase" value="&amp;nbsp; &amp;nbsp; &amp;nbsp;Summarize" style="rounded=1;whiteSpace=wrap;html=1;fillColor=#fff2cc;strokeColor=#d6b656;" parent="1" vertex="1">
          <mxGeometry x="429" y="522" width="100" height="40" as="geometry" />
        </mxCell>
        <mxCell id="-SZtNBZtj36RFmlGFLr5-49" style="edgeStyle=orthogonalEdgeStyle;rounded=0;orthogonalLoop=1;jettySize=auto;html=1;entryX=0;entryY=0.5;entryDx=0;entryDy=0;" edge="1" parent="1" source="user" target="agentState">
          <mxGeometry relative="1" as="geometry" />
        </mxCell>
        <mxCell id="user" value="User" style="rounded=1;whiteSpace=wrap;html=1;fillColor=#fff2cc;strokeColor=#d6b656;" parent="1" vertex="1">
          <mxGeometry x="119" y="340" width="100" height="40" as="geometry" />
        </mxCell>
        <mxCell id="-SZtNBZtj36RFmlGFLr5-20" value="" style="image;html=1;image=img/lib/atlassian/Confluence_Logo.svg;" vertex="1" parent="1">
          <mxGeometry x="629" y="260" width="30" height="30" as="geometry" />
        </mxCell>
        <mxCell id="-SZtNBZtj36RFmlGFLr5-21" value="" style="image;html=1;image=img/lib/atlassian/Bitbucket_Logo.svg;" vertex="1" parent="1">
          <mxGeometry x="630" y="305" width="27" height="25" as="geometry" />
        </mxCell>
        <mxCell id="-SZtNBZtj36RFmlGFLr5-23" value="" style="shape=image;verticalLabelPosition=bottom;labelBackgroundColor=default;verticalAlign=top;aspect=fixed;imageAspect=0;image=data:image/png,iVBORw0KGgoAAAANSUhEUgAAAMwAAADACAMAAAB/Pny7AAAAaVBMVEX////lNavlMar3zufjC6P98vjkKanmQa70t9z//f7kIabiAKD++fzjGKX99fr76fTxpdTsfcPpYbn52Ozrcr/ujsr64PDnU7Tzstr75fL2xuPyrdjnSrHqarz87vfvls3wntH1vt/thMbV5x/zAAAN50lEQVR4nN1d6aKqIBBONAwMTc0ss9Le/yGvLSAYmyXZud/P01FnYBhmY1gsXOFQYk8CXB6cfdIZDp6Ul44b789xs5TPy2NulnNTNxJFoOLF84JiburGIdfw0nGTz03fKGRAxwzI5qZvDCqgZwZUc1M4AlstLx0327kptEdSm5ipk7lptEYbmpgJ27lptMbFwEvHzWVuGq2RQhMzMJ2bRmtslbs/Bf4zGgBtzTOzRXNTaQsbZuam0Rr/1ZopzNrs79iae/M+s5+bRmv4Zgvgz9jNxon5OyZAXgZGXjpugvLnJwcdrpFRlT0AoyL56c0m2RNix8oNBK9+13g+V2Vkz8pN1qLM/83gxtq/El7ClAuH/wGTwl/PTfkr8kvIm5eQKFVaSAR26stubtoHWDYZ5EkMyvaoWD3k2NZ87AbCbBPPTT+PVQZ4CSNks0MqP6AzmHdNIMyil/3OrnPIPJ4VGKU5WlTKyFlQLdb5NuImshuJ7Df0GiogL2EgCP3b9oHVCgDfnqpCnlsA4S840iuIRaI2953wQkmFgOA7CKTTF9zpRo0wCB4BM8sayrNAFJft+f7Dmm445LpIqv1ms6+SRUFVQvTYXJKtsNJAkOXzmQRoVwTCYvEy//kT9TUB5HYRRGcCnp5/qcTVhsllNxM7h304ULFH+pNPySaC37JissfCs51K59jpFtx+juzNuToJCgmXF0ZGTOPmOBOsleXpub5AxnaWXVFjQX+cqm9bOKi6Yn7hY1D4vYAcqckCBwHy6jljABz7V/kFEF4Fr74LWYuT3S6RmU7D4SRbfjgP2VNySDEY5JjqAJhx0rSsToGFhbNWUWMGypv0lHU4pZuBGxVvStF2CVthy2vo+Nf+YgDmUMOG/3Oy8sTlV24GVOcbSk0zWuWhfRZ273zAq7MV91tViiooupyF1/s1nZhmMQRqnlMDSpHR8yUaKEZeQldZ3VMTZvtR7HT0QC5fBABkEYizoH46l+Q08Bc5UZI4xrteBEXrEh0yXqF0tJ/oP+S1SExHzcuUq5FGL7YIIA9zQxxAQMKXHFjFdpON7N0b+jx+fdITnAMYNY9PkldqoqslKyiU2ohBGqMWiAZV2LwsyIRay3ArNexjup/i7YttGV88cTGCCsWpnJraStSWtaoaYbsVlU6YSja49vltZTCJZaKC1Ss9uzQULZztVuEW4dpiO2Ib2yuExQLBVpZlTejqV0eTaSQa1rLNvjoJBhtUxnrwycgNuugTxfQbONvI5hk1TCiUYbEd3VKDRvaKuMleF4kEAFxMklaZo5G3dV83csd9R/dSrImMX+jcY8VLLrUNO+BV+YhYpsak183gKFQbF139AGhkIKZTg0/yf+gsHGhDR6oXtFYdIWIDEpyUwS6fClmkdbRa6u0Eqv1iWVnIGvC0X2EbnhoErs7K56mMwlIvziV1d0Llv5z32EzLRWeq5ZkpUIwLzfMbKhuRIRS2o1ODG+X/oPXVJGow032nNQ5GpBnyJZVRcjXoGUQlAHjqaV4gY7CXaOQMHbWVVTcEmsfTJy8AGuNGCd0AdMnN1kzNUT1q8cWoQ4g6IuTTFUM0n3gC7enUaPTrxSgn+KKOhZ6NUtqpQ9XDa2p0CY6XCsmJmXDKRWjeJvBVLaVn8+PqBP4qpC7xSvUvPNqnoAFP+e/mcgKcumHmQIda9wEOSyoF+KSayA+ZKSwmVv4oOlJf2WRkUFRPDxpAqZXXwULoNWIWN+Z9qpE/uqP7IDapZQpUMOtZYZPaUKPZ9VZGZRjJDZCYah4lZa/IKf9EoZN84z4T6JanoVD0xoz8QWYtj6kjYVUpCut5YWIGeLpYwMG05mApfS5m1nI9IrCFauZBy6emNFGz1W4CG4OYKgwAJhDQSi1TtJTYSK40TCYAkYZMeqr0gwE9eZCCWcsjq6+pXQsU7/X01JSGiNNF+ziRxCA6bJh/MrKEZEcFIWhkP6OVVlCMybadzglQxBDOVBqIbTSL4cq4kW4YmuiKyQG4Q+NrqtRuSo1GaLX38zhT9amw+fJaObYGP/MBpQ6AnjzG6zOX7Cj7WY8Vc9Ok8o9WymVjWP0PrDdy9Q7BMDL/RMas5TeyRHH/tHSk1kcg5yZSUDMA2r+Gmm/ppJX86SP9Z2V0QgsWAwHyeV2vZOe9QCRXRRLk3lDBg6BWrLaEhfWvb6XvlleWNFD4p7v6ZXADdYjxFZ3FKaTESaQsEL2wSNlbE9NNDcsZKjXtPhKoCUgzrthmfSzp8wCW6n2d7bJEZcibgDbMRlUPx6rP1YHy+EYukEZqdUOO+szS24VWXP5JQ2X+4MbaXRrgGaDQyg8LTSuWrxWoCtHuHD54MvOeNFswc6b7JXzNHNkj0eSfempcM4NWdPWHo6zlIVj+CatTr86ZSejq18SLbLCm4UNYKqfGNTNoQ1N+Y9S+DDkL7ErzT3dqHDOTUF8ZfnzmggY3AFb5jq6ZYVWY+PNaF5ZxU+SfXDOTU4NUbR7Yg1nPkUJiHTPDihe8t14/QMgETUGNU2ZY+kM1luPAzqkH8u3XKTNL6iOSiY6PUetZkdt1ygzTP2CiOsQDs56lkQSXzLDMki55NQosbSen1yEzcZ9ZmqxUPMlo/imVuCsOmVmxugRr99WI3tKT5Z/cMcPsXGKXWbKD1gZ3x8yRFSVMWvLeW8+v6tkZM3kfxJi2aJf5ra9HBV0xs6Z1WJJvfgaWfwpeUmKumPHpfjl9v4WG2UiKj07NTMz26mzC1f/AmQnwsPzKETP0zBIADk5br1h8dBCFccNMXOqjwx/iRN8+aE/lhhlmLbvpuJSzjI0Y5XfCzJL6hOMzS3ZgKxILK9IJM7QiBQSOjrnENK5MhMoWF8wwKXgns2SHIzuvxsuxC2ZoOB2Ezk699rlrvujAATNHlrl32JqARUoApwOmZ2bJaipkLsdUiGk5E6+ep2eG1tZ/HMLUgxXYc5U4kzPT1yGNTF2NRNywqWGDNjUzccG+4fgIP8s/4SsdtamZYak0Ze3eVEAs/8QSZRMzwyo48cn5eXd2Pgqnz29NzEw7TWbJDivmQT8d82mZYUdJv9POi8Wyno13J2UG7bUxusmRD6KMkzJzoOdZ5NHT6XFlvRDuUzMlM4jVYbkzykQwEw2nt6mZkhlmLxFn1vIQe2ag33bOKZlhJxbrSQnWov8mmpSZlfGUmAOw/NMtzzgdM2eW2v5ql8WUyz9NxwzLLMGv9lXasZBgMRkzea/zXRtlAxz7qon8M2b6Eq10sBt/DQcWo0v9JzHvlGit96x4zmPFwfqjpC5QRQMSbsVz+3GFOvGGSLoUMgv2e5CdtQIBsaucfWAXyqqBZ+lM7ktrxqPQ1m1HrbzhIi5m6Km2lp+2hFFrpYrQUVbWfHuB9iSxI6xVJy0iq7LTvap8HoQjV94EWB+VRxNsjMRKc7DhO54MDz9UTMxNvxmX8EF75GT6VJke50x75MS06zVQOTHehLUldjAcHDcdBjI0BADgqwot1h9ONCW7Vc0v2dR8tWn0/qMDdInpcDP4om/WeWfaibkVdetWDSu8UiJafhGfHTo190Zgnbm+ASMxuuPAa9OZ0/twfA1mWnQHtZfmTi2/BTzs08fBou3Eb0Hb3OB/YmZp7tTwW/iwU8NvQdeqxaJTg0eCr8E8slpbsTKqdrJffQ3m/kSvTRI57E4mbqxOFE+EtYkZ/RFEZO4oFHjtd5yaZatuxk1HVu/IW3TRuzVrc+8IxP7JeCWHKSAY2+w0GCjb6E0ElNv00YNXw6D66m4C3JCQsnEZqD00Nh0OzU1bUWPZevLkTBOsNycLg7kzeJUnBxli9SVlwicw2LqJ1VQnrgEADpRsqZrViNyoLlzFJ2FNAhxep5e1Qxr2SgwGaZ4q9CsurbQQKmX6HZDtGa2EDooAhhPna9Am5KJDgeejxXIr1WqBoR9kj0Ld4lj8CZAxnZON8PkLUHD0XJXFKzcgGnHM9d7umb0C8M2nE7ElOIi2E11WhHZcO/vuiynbEDXU2L1Z0xa8LYWGIzhqpjAJEu7mE8Bdl3DHR23BF7d9i2uRLv4UN4OG7XX1KTtJ5fXCBGH2EqLn28e/JwnK5vV5EfKGEyTpRxZO7HOrvNuRL1It+UErfT1QJV7QhL33LRzkF/zOAouv5xoW51a84ASXzXsZz6Qp+Z1l285yIdXuKLRvhyB7p0boyN+QFJSz3XyG8uvwypax5c5+xvWbx9ip+WrC2i8Hl+lIYj/sMp0XxCnoWen8pLkun2EYXHOEBw1odgWh1xyRYuDkHvl7jshPXBm+vg4uoKrZjSvIryPOmCNR/1P3W8ipY6BqNvp17DLhogUYpXd5QYfr0IDvzODH7KA87X+7XfX0GzeD3bEfXNoGN4duKyol1jspb9K028D+N+idfkHCeiz5zaJDVFZtKPWLsNee21KwXY4/dZveDTcLhxcoosrgw5qTME95XcK8iP3U8gpKznYhhZP7mSbA2MtBQaS+LuEHkGxGXNsahD98a+sN6JBaXqiLg8tvs3JHXltcdQyC99vufRdHY8D6r9xBfYP5evBvl+F+APPF7d7Xjkd8jMK4aMa0Qp8ZqVGh6e4D+TGYr1r4zrm1KYBsmPlRK+YV6qwIBf4zM/N/rZmLWZv9wi3NdmiN+8wfsgASowVQ/wEjk2JrYObvaOaF+baU4a3Bv41My8zYKzdmRq6t4XHTGMkdCg03wd+xMh9YyiKAD5Ds5+JkJhzkMcDb1bV/xzFjOMgrPbC68/fH+Af5XMaaScqwTwAAAABJRU5ErkJggg==;" vertex="1" parent="1">
          <mxGeometry x="619.18" y="388" width="44.63" height="42" as="geometry" />
        </mxCell>
        <mxCell id="-SZtNBZtj36RFmlGFLr5-24" value="" style="shape=image;verticalLabelPosition=bottom;labelBackgroundColor=default;verticalAlign=top;aspect=fixed;imageAspect=0;image=data:image/jpeg,/9j/4AAQSkZJRgABAQAAAQABAAD/2wCEAAkGBwgQDxUQEBASEhMQDw8PEBgVCw8RGBcVFREWFhUSGBYYHSohGBolGxUVITEhJykrLi4uFx8zODMtNygtLi0BCgoKDg0OGhAQFy0mHyUtLS0tLTg3LysrLS0tLS0tLS0tMisvMC0tLS0tLS0tLS4tLS8rLS0tLS0tLS0tLS0tLf/AABEIAOEA4QMBEQACEQEDEQH/xAAbAAEAAgMBAQAAAAAAAAAAAAAABAUCAwcGAf/EAEUQAAIBAQQECQcKBQQDAAAAAAABAgMEBQYREiExcTJBUWGBkaGxwSI0Q1OTs9ETQlJicnSDkqLSM3OjssIjVILiFBZE/8QAGgEBAAIDAQAAAAAAAAAAAAAAAAMEAgUGAf/EADoRAAEDAgEICAUEAgIDAAAAAAABAgMEEQUhMUGBkaGx0RIVMkJRUnHhMzRhcvAUIlPBQ7Jj8QYTYv/aAAwDAQACEQMRAD8A7iAAAAAAAACHar0sNPh1YpriUtJ9S1lWatp4u29OK7ELEdLNJ2WqVlfFdiXAjOfQort19hrpMdp29lFXd+bC4zCpV7Som8r62LrQ+BShH7UpS7sijJ/5BIvYjRPXLyLTMIYnacq7uZEq4lvN7JRjupx8cyo/Gqt2ZUTVzuTtw2nTRfWRql83lLbWn0PR7iu7Eqp2eReHAmSjgTMxDRK3Wx7atR76034kK1c655HbVJUgiTMxNiGuVaq9spPfJswWaRc7l2mSMamZDBtkd1MrIE2LqDKNWotkpLdJozSV6ZnKeKxq50Nkbba1sq1FuqzXiSJVTpmkdtUwWGNc7U2IboXveMdlafTPS7yVuI1Tc0i8eJGtJAudiEmniO9F89S304+GRYZjNW3O6+pP6IXYbTr3ba1JlHFtqXDpwluco/Etx4/KnbYi7U5kDsJjXsuVN/In0MWWR8OE47spLwfYXYsehd22qm/82FV+EyJ2XIu4srNfF31ODVjnyN6L6pbTYxYhTS9l6cOJTko5487F48CeXCsAAAAAAAAAAAAADXXrUoRcpyUYra28kYSSMjb0nrZDJjHPXotS6nnbwxZTWqhDS+tLNLojtfYaGpx1qZIW3+q5tmfgbaDCXLllW30Q8/bL1t1Xh1JNPiT0V1LaaOevqJu29beGZDaxUkUXZbzIRULB9AAAAAAAAAAAAAAAAAAAAB8AJVkvC10v4dSUebPNfleosQ1c0Pw3qnDZmIZaeOXttRS+sGLHsrw/5Q8Yvw6jeU2PaJm605fnoaubCdMS6l5npbJa6FWOlTkpLmezma4mb+GeOZvSjddDUSxPiXovSym4lIwAAAAAAARL0vCjZ6bnPXxRXHJ8hWq6plNH03ak8VJ6endO/ot/6PBXjeNpry0pvV82K2R3LxOLqquWpd0nrk0JoQ6eCmjgbZqa9KkQqlgAAAAAAAAAAAAAAAAAAAAAAAAAAAAG6x2yvRlp05OL7HzNcaJoKiSB3SjWy/mcilhZK3ovS57y5b2p2mGfBnHJTj4rmOzoa5tUy6ZFTOn5oOZq6R1O62hcyliXioAAAAAAeHxfaZStOhxUoxSXPJKTfU11HI41Mr6joaGpxy8jpMLiRsHS8f6yFGac2QAAAAAAAAAAAAAAAAAAAAAAAAAAAAAAALHD1plTtNNrZOSpy51LUu3J9BfwyZYqlltK22+5Urokkgd9Muw6GducoAAAAAAVd9XLQtKz4NRLKMkuyS40a+uw+OqS+Z2heZdpK19Ots7fDkeJvC7rVQllUjlyNa4vc/A5OppJadbSJr0KdHBURzJdi6tJEK5OAAAAAAAAAAAAAAAAAAAAAAAAAAAADfY7JaK0tGnFyfHlsXO3xE0FPJM7oxpf80kUszIm9J62PZ3Hh+lQynPKdTsj9nn5zqaDC2U/735Xbk9OZz1ZiDpv2tyN3r68i7Nqa4AAAAAArXfVkVeVCb0JRcUm+DLOKlt4nr4yktfCkywuWypb0W6XLf6KVYklal0XamWxYVKcJJxklJPamk0+gtua1yWcl0KrXK1botlKG34Usk9dKTpPk4Uep611moqMFhfljXortQ2kOKyMyPS+5SgteHLyp69DTXLB5/p2mnmwmpj7t0+nLObOLEad+m3r+WKqpCcXlJOL5HFp9TNe5jmLZyWUvNVHJdq3MTE9AAAAAAAAAAAAAAAAAAAB9im3klm3xJZs9RFVbIeLZEupZ2S4LyqbKbiuWfkdj19hehwyplzNsn1ye+4py19PH3r+mX2L2w4SoR11pub+jHyY9e19huIMDjblldf6Zk58DWTYs9ckaW+udeXE9DZ6FGnHRhFRiuJLI3McbI29FiWQ1b5HPXpOW6kG131Y6dSNLPSnOpCGUdejpSSzk+Lbs2lWWvhjkbFe7lVEsmi/iWIqKV7FktZERV9beBZF0qAAAAAAHPcU+eVfw/dQONxX5t+rgh1WG/LM18VNd3X1bqGqE84r5svKXRxroMKavngyNW6eC5U9jOeihmyuTL4pnPR2LFtklqqxlTfKvLj2a+w3cONxOySIrd6c9xqJcIkblYt9y8i8s1sstVZ06kZ7pp9a4jaxzxypdjkU10kMkfbaqGyrSpyWUoqS5HFPvM3Ma5LOS5g1zmrdq2K+vh+657aSX2XKHYnkUn4ZSvzsTVk4FpmIVDe/ty8SBUwhYXwZ1I/8otdxVdgcC5nOTZyLLcXmTO1F28yLUwdL5tfrpeKZXdgXlk3e5O3GU7zN/sRp4Qt3FUpvpmvAgdgc2hybyZMXh0tXcapYVvNere6o/FEa4NUp4bfYzTFadfHYa3hm9foR9rEwXCKryptM+s6bzblMXhu9vVf1afxMVwqr8m9OZ71lTebcvI+LDd7eq/q0viEwqr8m9OY6ypvPuXkZrDN6/Qj7WBkmEVXlTaedZ03m3KZxwreb4oLfU+CM0wapXw2+xiuK06eOw3Qwhb+OdJdM34EjcDn0uTfyI1xeHQ1d3M308HVPnV0t1JvvZM3Al70m73InYyndZv8AYl08IWNcKpUe5wj4MnbgcOlzt3IgdjEuhqbydQw7dUPRaT+tKUuxvItswulZ3L+uUrvxGod3remQsaNnowWUIRivqwUe4usjYxLNREKj5HPyuVVPle00KaznOMF9aaj3nkkrI0u9yJ6hkb3rZqKpS23FdhhqpqVV8y0Y9b8EaybGYGZGXcuxNqmxiwqZ+V/7d6nnbxxDb62rS+Tj9GGa65bWaWpxOebJfop4Jzzm2gw+GLLa6+KkO6vOKP8APo+8RWpPjx/c3ihPU/Bf9q8Dpp3RxwAAAAABz3FPnlX8P3UDjsU+bfq4IdXhvyzNfFSqKBdAAT4wmRboCfZ76vKnqjWll9Zqf92Zbjr6mPI168eJVfRQPzsThwLGhi63rhRpz6HF9jy7C6zGp07TUXcVH4RCvZVU3k6ljKn86jJbqifekWm443vRrtvyKzsGd3X7iVSxbdr2qpHfTT7mywzGadc901ciF2Ezpmsv59SRHE10P0rW+jU+BKmK0vn3LyIlwypTu705m6N+3W/Tw6W13kqYhTL/AJEI1oKhO4pmr4uz19L2sTL9bT/yN2oY/o6j+Ndhkr1u719L20Pie/rKf+Ru1Dz9JP8AxrsUO9bu9fS9tD4j9ZT/AMjdqD9LP/GuxTF3xdvr6XtYnn62n/kbtQ9/R1H8a7DCV+XWvTw6JZ9xitfTJ/kQyShqF7immWJboXpc91Ko/AjXFaVO/uXkSJhtSvc3pzNFTFl2LZ8pLdTy/uaInYzTJmuurnYkbhNQueya+RFq4yo/Noye+cY92ZXdjjO6xdycyduDP7z0/NhCr4vtj4FOnHfpTfgVn43MvZaib+RYZg8SdpyruK60X9ek9taSX1VGHalmUpMRqX5FeurJwLbKCnZmZty8SvlKTebbb5W831lNVVy3VS0iIiWQ+Hh6ACVdXnFH+fR94iek+PH9zeKENT8F/wBq8Dpp3JxoAAAAABzzFPnlX8P3UDj8U+bfq4IdXhvyrNfFSqKBeAAAAAAAAAAAAAAFgBYAAAAAAAAAAAAAAAEq6fOKP8+j7xFil+PH9zeKEFT8F/2rwOnHbnGgAAAAAHO8Vee1fw/dQOQxP5p+rgh1eG/Ks18VKool4AAAAAAAAAAAAAAAAAAAAAAAAAAAAAAAEq6fOKP8+j7xE9L8eP7m8UIan4L/ALV4HTztjjAAAAAADn2LqVSNrnJppT0HB5amlTinl0o5TFGObUuVUyLa2xEOqwx7Vpmoi5UvfapTGuNgAAAAAAAAAAAAAAAAAAAAAAAAAAAAAAACdclKpO00lFN5Vac3ktkYzTbfMWaNjnTsRqaUXUilase1sD+kuhU1qh0w7M44AAAAAAj22x2etBwqRUk+tPlT4mRTQsmb0XpdCWGZ8TukxbKeMvbC1rpZypZ1Ycy8tdHzujqOdqcKkjyx/uTf76th0NNikcmST9q7vbXtKBpp5PU1tNZbQbRMuU+HgAAAAAAAAAAAAAAAAAAAAAAAAAAALq6sN22tk5L5KHLJa3ujt68jYU2GyzZVTop4rn1JzNfU4lFDkRekvgn9qe1uy7LLZ4aNOO3hSeuUt7Ojp6aOBvRYmvSpztRUyTu6T11aEJhYK4AAAAAB5q2YldC11KVSOlTThk48KOdOLer5yzbNRLiSw1Do3p+3J6pkTabeLDUmp2yMWzsvouVdhe2K3WWtHSpTjNceT1retq6TZRTxypdjrmtlgkiWz22Ndvuuw1/4tNSfLsl+ZazCalim7bb8dpnDVSw9h3I89bMGR20auXNNZ/qXwNXLgyZ437fY2kWMrmkZs5LzKa04cvWn6LTXLCSl2bew18mHVLO7f0y++42MeI0z+9b1ye28ra1GrB5TjKL+tBx7yo5jmdpFT1yFxr2v7K3NZiZAAAAAAAAAAAAAAAAAypwnJ5RTk+RRb7j1rVdkal95i5yNS7lsWNmw/elTZRlFcs2odj19hajw+ofmZb1ye+4qSYhTszvv6ZS5seDJ7a1VLmgs/wBUvgbCLBl/yP2c15FCXGU/xs28k5noLvuW76GuFNaX0peVLrezoyNpBRQw5Wty+OdTVT1s02RzsnhmT89SXabTQpx0qk4wXK5JE8kjI06T1shBHG+ReixLqecrYqU69OlQj5Mq1OEpyW1OaT0Y8WrjfUal2Ko+VrIkyKqIqr66E5m2bhSsic+VcqIqomrSeoNyaYAAAAAA5zivz2rvp+6gcpiPzT9XBDrcN+VZr4qVdKrUhLShJxktjUmn1oqNcrV6TVspcc1rks5LoX1hxbb4aqijVXP5Eutauw2UOKzMyP8A3bl/NRrJsIhflZ+3en5rL2yYtu2fC0qb+tDNdcc+3I2UeKwO7V09fY1kuEzt7Nl/PqXFmtlmqLOnUhP7M0y9HNHIl2ORShJDJH22qhulFPU1n0GapcwRVTMQ6t03dPhUKTfL8lFPrSIHUkDs7E2ITtq525nrtIlXDF0S9E47qs14kDsMpnd3epYbidSnevqQjTwfdr2Sqr8SL70RLhEC5lXaSpjE6Z0T81mmeC7LxVqi3qD8ERrg0eh67uRImNSaWJvNbwVS9fL2S+Jj1M3zrsM+uneRNpi8FL/cP2C/cedTJ/Ju9z3rtf49/sFgpf7j+h/2PEwb/k3e467/AOPf7GSwVT9fL2S+Jl1M3zrsPOunfx7zOOC7Nx1qj3RgvBnqYNHpeu4xXGpNDE3m6GD7uW2VV/8AOK7okiYRAmdVX89CNcYnXMifmskUsLXSttNy31Z+DJW4XTJ3b61InYpUr3rakJlK5rsjsoUumlGT62Tto6duaNNhXdWVDs8i7SZCEUskklzJIsIiJmK6qq5VUwr2ihTWc5xivrTUe8xfI1iXcqIZMje9bNRVKm1YquuGyUqj+pDPteSKMmKU7My39PyxejwqofnS3r+XKK3YwtctVKEaa5X5cvgupmumxaV2SNLb15cTZw4PE3LIt9ycygtNpr1ZaVScpvlcm+rkNZI98i9J63U2kcbI06LEshtunzmj94o+8iZ0/wAZn3N4oR1PwH/avBTqR2RxYAAAAABzjFfntXfT91A5XEfmX6uCHW4Z8qzXxUqSkXwAAALAl0L0t9PgVqi5vlJNdT1E7KiZnZeu3mQPpYX9pibCfSxTe8ds4y+1Sj4ZFluJ1Kd6+rlYquwqmXu218yXSxnbVwqdOW7Tj4smbi8qZ2ou1OZA7BolzOVNim+ONp8dnXRaH+0kTGV0x7/YiXBE0Sbvc3wxrZ+OjNbpxfwJUxhmli7iNcFfoehmsaWL1VX+n+4964i8i7uZj1LL5k38jJYzu/1db8tP9x71xF5XbuZj1LN5m7+R9eM7v9XW/JT/AHDreHyu3cx1LN5m7+Ri8aWL1VXqp/uPOuIvIu7mZdSy+ZN/IwljWzcVGfTKC+J4uMM0MXcepgsml6bzRLGz4rP12j/qRrjK6I9/sSpgiaZN3uaKmNLY+DSpre5S+BG7F5FzMRN/IkbgsSZ3ruTmRKuK72lslCP2aS/yzIHYnULpRNXO5O3CqZNCrr5WINe97ynwq9R7puK6o5Irvqp39p68OBZZRwM7LE48SE3m83rZXtdblnNkAAAABKunzmj94o+8iTU/xmfc3ihBVfAf9q8FOpnYnFAAAAAAHN8Wee1d9P3UDlsQ+Zfq4IddhnyrNfFSpKZeAAAAAAAAAAAAAAAAAAAAAAAAAAAAAAABLujzmj94o+8iS0/xmfc3ihBVfAf9q8FOpnYHFAAAAAAHN8Wee1d9P3MDl6/5l+rgh12GfKs18VKgpl8AAAAAAAAAAAAAAAAAAAAAAAAAAAAAAAEu6POaP3ij7yJLB8Vn3N4oQVXwH/a7gp1Q684kAAAAAA8JjK6rTGtK0JaVOejm0uC1BR8rm1bTn8RpnpIsuhd2Sx02FVUaxJDezkvry3yHmjW2NuBYAWAFgBYAWAFgBYAWAFgBYAWAFgBYAWAFgBYAWAFgBYAWAFgXOGbqtNatCpFZQpVITlJrU9GSeiuV6uguUVM+WRHJmRUW/ouY1+IVUcUTmKuVUVLeuk6OdMckAAAAAAfGk9T4wEWx5m98IWepnKg1Tl9FryHu+j0auY1dRhjHZY8i+Gj2/MhuaXF3s/bKl08dPv8AmU8leF122g/9Wm4r6W2P5lqNRLTyRdtuvQb2Cqim7Dr/AE07CFmQlgAAAAAAAAAAAAAAAAAAAAAAAAAEmxWG1VnlSpyny5LUt8nqRJHC+VbMS5DNPHCl5HWPV3Tg6KylaZaXHoRby6ZbXuWXSbanwtEyyrqNJU4wq/thS31X+kPVUqcIxUYpRilkkkkkuRI2zWo1LImQ0jnK5buW6mZ6YgAAAAAHhb4vq22a31dCWcc6WcJa4v8A0YdT50aKeqkhqX9FcmTJozIdLS0UVRSM6SZcuXTnUvLsxXd9bJTfyU+ST8nons68i9DiEUmR2Rd201tRhU0WVv7k+mfZ/wBl75LXE01vzRfzmtyopU23Dd1VdbpqD5YPQ7Fq7CpJQwP7tvTIXosSqI+9dPrl9yktWCJeirblOH+UfgUX4Uvcft9uRsY8bT/IzZyXmVdowre8NlOM/s1I90smVX4fO3Rf097F1mK0zs7reqcrlfVuy8IcKhVX4M2utLIruglbnYuxS02qhdmem1CJLNPJ6nz6iJcmcnTLlQ+Zg9PoPAAAAAAAAfMwehMAlUrvt0+DRqvdRnl15ErYZHZmrsUgdUQt7T02oT7Phi95+i0ftVIrsWb7CdtBO7u29Ss/FKZvev6FpZcE1n/FrRXKoQcu15dxaZhTu87Z+f0UpMbb3Gbfz+y6seFrqp63B1Hy1JaX6dnYXY8PgZnS/r+WNdLilRJmW3p+XLmEIxWUUklqSSSS6C4iIiWQ16qqrdSpvPEl3UM1pfKTXzYZPrexd5Umroosl7r4IX6fDZ5strJ4qeX/APYbbabTRTehT/8AIo+RFvX/AKkeE/nd3Mata2WaViZk6SZNaZ/E3PV0VPA9c7ui7KvoubwOgHQHLAAAAAAHNMXefVd9L3MDm675h+rgh2GGfKM1/wCylQVS+S7DeVtofwqko82ecfyvUSxzSR9h1uBBNTRTfEai8ducvrJjW1LVVpQnzxbg/FPsLzMTenbai7jWS4JGvYcqb+Rc2bF91y4TnTf1qbfbHMuMxGF2e6fn0NdJg9Q3s2XXzsWdnva7qnAr02+T5SKfU9ZZZURP7LkKclJPH2mLsJqZMVzGcIPU0nvSZ4qIuc9RypmUjzu2wPbQpP8ABh8CNYI1ztTYTJUzJmeu1TRO4bpe2z0+iCXcYLSQL3EJEr6lP8imt4cuf1EfzT+Jj+ig8iGfWVV513GLwzc3qV7Sp8Tz9DB5eJ71nVefcnI+LDFzepXtKnxH6GDy8R1nVefcnIzWG7n9RH80/ie/ooPIedZVXnXcZwuC6V/89Ppjpd56lHB5EMVr6lf8im+F13etlCkvwYfAkSCJMzU2ES1U653rtUkU6VOPBiluikSI1EzIROc52dTM9MSLaLysNP8AiVqcXyOrFPq2kT542dpyITx000nYYq6istOLbphslKb5I05d8skVn4hA3Mty5HhNS7OiJ6ryuU9rxvWeqlRjHnnJy/Ssu8qPxRy9hu38/svxYI1PiPv6ZOPIoLffF4V/4lWTT+anox6lt6SjLUSy9p2rQbSGjhh7DcvjnUgkFiyS7o85o/eKHvIkkPxWfcnFCCq+BJ9ruCnVzqjhwAAAAADmmLvPqu+l7mBzlb8w7VwQ7DC/lGa/9lKcql8AAAAAAzpVaseDKUfszce49a5W5lsYuY13aRFJlK+r0jstFTpqOXfmTNqZkzPX89SB1FTuzxpstwJEMTXyvTvppUn/AIkiVs6d7hyIVwylXub15m+GLr3XzoPfSXhkZpiE6aU2Ea4RTLoXaZrGV68lL2Uv3HvWM/02e5j1NTfXb7GSxpen0aHsqn7x1lP4JsXmedS0/i7anI+vGl6fRoeyqfvHWU/gmxeY6lp/F21ORi8ZXryUvZS/cOsZ/ps9z3qam/8AranIwli+93x01upfFni4jP8ATYZJhFMmhdponie+X6bLdSpL/EwWunXvbk5EiYXSp3N68yPVvy9ZbbRU6JaP9uRgtVMud6kraGnbmjTjxIlW0V58Oc5faqSl3shV7nZ1VSdsbG9lqJqNSSMbGYAAAAABLufzmj94oe8iSw/FZ6pxIKr4En2u4KdYOoOHAAAAAAOZ4u8+q76XuYHO1vzDtXBDscL+UZr/ANlKcrF8AAAAAAAAAAAAAAAAAAAAAAAAAAAAAAAEy5/OaP3ih7yJJD8VnqnEgqvgSfa7gp1g6c4YAAAAAA5li/z6rvpe5gc/W/Hdq4IdjhfyjNf+ylOVS+AAAAAAAAAAAAAAAAAAAAAAAAAAAAAAACZc/nNH7xQ95Ekh+K31TiQVXwJPtdwU6ydMcMAAAAAAc4xvZ5QtkpPZVhCa6IqDX6e00VcxUmVfH/o63CJEdTI3wVU/v+yhKZtAAAAAAAAAAAAAAAAAAAAAAAAAAAAAAAAWOHLPKpa6KXFUjUfMoPS8MuknpmK6VqfW+zKU6+RGUz1XwttyHVDojigAAAAACrxDc1O10tHPRnHN05ZbHxp8z+BXqIEmbbToLtDWOppOlnRc6fmk5nbbJXozdOpFxkuXj50+Nc5onxuYvRcmU7CKZkrEexboaTElAAAAAAAAAAAAAAAAAAAAAAAAAAAABnRpVJyUIRcpSeSSWbZ6jVctkQxe9rGq5y2RDouFrhVlg5TydWaSllsivoLxfwN3S03/AKkuudTksRr/ANS7ot7Kb/ryL4tmsAAAAAAABEvG7rJaIaFWCkuJ7GnyprWiOSJkiWchPBUyQO6Ua2PG3pgq1QzlZ5KpH6Mmoy69j7DWS0DkysW/E6CnxqN2SVLL45058TzVps1opPRqQlB8koOPVntKTmOatnJY3EcjJEuxyKajEzAAAAAAAAAAAAAAAAAAAAAABnRo1ZvRhGUnyRi5PqR6jVctkQxe5rEu5bIeiuzBtvqZOq1RjyapT6lqXS+guRUL3ZXZE3mpqMYhjyR/uXYn5+XPZXVc9isyypR1vhSbzk978FqNnFAyJP2oc/U1ktQt3rk8NBYExVAAAAAAAAAAAAMKtKnNaM4qSe1SimupnioipZUMmvc1btWylLbMJ3RU1qm6b5YTcf0vNdhWfRxO0WNhFi1SzO6/rzzlPacCP0VfonT8U/ArOw/yuNhHjvnj2Lz5lZXwffEdkYT+zVX+WRA6ilTQi/n1LjMYpXZ1VPVOVyBWuK9YcKz1OiGn/bmRLTypnapabXUzs0icOJEqWavHhU5x305R70Rq1yZ0UnbIx3Zci6zTmjG5JYZoA+g8AB8zQPRpR5V1i6CymynQrS4MJS3Qk+4yRqrmQwc9rc6ohLo3Lek+DZ6vTScf7sjNIJVzNUgdW07c8ibb8CfQwjfEtsIw+1Vj/jmTNopl0WKz8XpW5nKvonOxZ2bAtX0teK5oU2+15dxM3D17zilJjre4zb7cy3smD7phrlGVR/Xm8uqOS6yyyiibnylCXGKl+ZUT097l3Z7NQprRpwjBckYKK7Cy1rWpZqWNdJI+RbvVVX6m0yMAAAAAAAAAAAAAAAAAAAAAAAACpvYglL1MeRvTjNfKb6mKOsVHGyaY0jxp64ubsLURr6g9ddO02EZoarMXSLJrlPoAAAAAAAAAAAAAAAB//9k=;" vertex="1" parent="1">
          <mxGeometry x="630" y="347.5" width="25" height="25" as="geometry" />
        </mxCell>
        <mxCell id="-SZtNBZtj36RFmlGFLr5-42" value="" style="aspect=fixed;sketch=0;html=1;dashed=0;whitespace=wrap;verticalLabelPosition=bottom;verticalAlign=top;fillColor=#2875E2;strokeColor=#ffffff;points=[[0.005,0.63,0],[0.1,0.2,0],[0.9,0.2,0],[0.5,0,0],[0.995,0.63,0],[0.72,0.99,0],[0.5,1,0],[0.28,0.99,0]];shape=mxgraph.kubernetes.icon2;kubernetesLabel=1;prIcon=api" vertex="1" parent="1">
          <mxGeometry x="619.5" y="440" width="41.67" height="40" as="geometry" />
        </mxCell>
        <mxCell id="-SZtNBZtj36RFmlGFLr5-47" style="edgeStyle=orthogonalEdgeStyle;rounded=0;orthogonalLoop=1;jettySize=auto;html=1;entryX=0.005;entryY=0.63;entryDx=0;entryDy=0;entryPerimeter=0;" edge="1" parent="1">
          <mxGeometry relative="1" as="geometry">
            <mxPoint x="528" y="360" as="sourcePoint" />
            <mxPoint x="618.70835" y="465.20000000000005" as="targetPoint" />
            <Array as="points">
              <mxPoint x="579" y="360" />
              <mxPoint x="579" y="465" />
            </Array>
          </mxGeometry>
        </mxCell>
        <mxCell id="-SZtNBZtj36RFmlGFLr5-51" value="" style="image;aspect=fixed;html=1;points=[];align=center;fontSize=12;image=img/lib/azure2/ai_machine_learning/Azure_OpenAI.svg;" vertex="1" parent="1">
          <mxGeometry x="432" y="472" width="20" height="20" as="geometry" />
        </mxCell>
        <mxCell id="-SZtNBZtj36RFmlGFLr5-52" value="" style="image;aspect=fixed;html=1;points=[];align=center;fontSize=12;image=img/lib/azure2/ai_machine_learning/Azure_OpenAI.svg;" vertex="1" parent="1">
          <mxGeometry x="431" y="532" width="20" height="20" as="geometry" />
        </mxCell>
        <mxCell id="-SZtNBZtj36RFmlGFLr5-54" value="" style="image;aspect=fixed;html=1;points=[];align=center;fontSize=12;image=img/lib/azure2/ai_machine_learning/Azure_OpenAI.svg;" vertex="1" parent="1">
          <mxGeometry x="433" y="290" width="20" height="20" as="geometry" />
        </mxCell>
        <mxCell id="-SZtNBZtj36RFmlGFLr5-55" value="&lt;div&gt;User → Ref Data Agent → Rephrase → Retrieve&amp;nbsp;&lt;span style=&quot;background-color: transparent; color: light-dark(rgb(0, 0, 0), rgb(255, 255, 255));&quot;&gt;→ Rank Results → AI Answer → Summarize → Ref Data Agent → User&lt;/span&gt;&lt;/div&gt;" style="text;html=1;align=center;verticalAlign=middle;resizable=0;points=[];autosize=1;strokeColor=none;fillColor=none;" vertex="1" parent="1">
          <mxGeometry x="106" y="170" width="670" height="30" as="geometry" />
        </mxCell>
        <mxCell id="-SZtNBZtj36RFmlGFLr5-60" value="" style="edgeStyle=orthogonalEdgeStyle;rounded=0;orthogonalLoop=1;jettySize=auto;html=1;entryX=0.5;entryY=0;entryDx=0;entryDy=0;" edge="1" parent="1" source="-SZtNBZtj36RFmlGFLr5-56" target="summarize">
          <mxGeometry relative="1" as="geometry" />
        </mxCell>
        <mxCell id="-SZtNBZtj36RFmlGFLr5-56" value="&lt;span style=&quot;text-wrap-mode: nowrap;&quot;&gt;Rank Results&lt;/span&gt;" style="rounded=1;whiteSpace=wrap;html=1;fillColor=#fff2cc;strokeColor=#d6b656;" vertex="1" parent="1">
          <mxGeometry x="429" y="399" width="100" height="40" as="geometry" />
        </mxCell>
      </root>
    </mxGraphModel>
  </diagram>
</mxfile>
